<svg width="74" height="74" viewBox="0 0 74 74" fill="none" xmlns="http://www.w3.org/2000/svg">
<g filter="url(#filter0_dd)">
<rect x="5" y="1" width="64" height="64" rx="8" fill="url(#paint0_linear)"/>
</g>
<path d="M46.8362 32.5431C46.8362 32.1289 46.5004 31.7931 46.0862 31.7931C45.672 31.7931 45.3362 32.1289 45.3362 32.5431H46.8362ZM45.3362 43.5C45.3362 43.9142 45.672 44.25 46.0862 44.25C46.5004 44.25 46.8362 43.9142 46.8362 43.5H45.3362ZM27.6638 43.5C27.6638 43.9142 27.9996 44.25 28.4138 44.25C28.828 44.25 29.1638 43.9142 29.1638 43.5H27.6638ZM29.1638 32.5431C29.1638 32.1289 28.828 31.7931 28.4138 31.7931C27.9996 31.7931 27.6638 32.1289 27.6638 32.5431H29.1638ZM33.319 43.5C33.319 43.9142 33.6548 44.25 34.069 44.25C34.4832 44.25 34.819 43.9142 34.819 43.5H33.319ZM34.819 32.5431C34.819 32.1289 34.4832 31.7931 34.069 31.7931C33.6548 31.7931 33.319 32.1289 33.319 32.5431H34.819ZM39.681 43.5C39.681 43.9142 40.0168 44.25 40.431 44.25C40.8453 44.25 41.181 43.9142 41.181 43.5H39.681ZM41.181 32.5431C41.181 32.1289 40.8453 31.7931 40.431 31.7931C40.0168 31.7931 39.681 32.1289 39.681 32.5431H41.181ZM45.3362 32.5431V43.5H46.8362V32.5431H45.3362ZM29.1638 43.5V32.5431H27.6638V43.5H29.1638ZM34.819 43.5V32.5431H33.319V43.5H34.819ZM41.181 43.5V32.5431H39.681V43.5H41.181Z" fill="white"/>
<path fill-rule="evenodd" clip-rule="evenodd" d="M37.25 23L47.5 32.1897H27L37.25 23Z" stroke="white" stroke-width="1.5" stroke-linecap="round" stroke-linejoin="round"/>
<path d="M27 43.5H47.5" stroke="white" stroke-width="1.5" stroke-linecap="round" stroke-linejoin="round"/>
<defs>
<filter id="filter0_dd" x="0" y="0" width="74" height="74" filterUnits="userSpaceOnUse" color-interpolation-filters="sRGB">
<feFlood flood-opacity="0" result="BackgroundImageFix"/>
<feColorMatrix in="SourceAlpha" type="matrix" values="0 0 0 0 0 0 0 0 0 0 0 0 0 0 0 0 0 0 127 0" result="hardAlpha"/>
<feMorphology radius="1" operator="erode" in="SourceAlpha" result="effect1_dropShadow"/>
<feOffset dy="2"/>
<feGaussianBlur stdDeviation="2"/>
<feColorMatrix type="matrix" values="0 0 0 0 0 0 0 0 0 0 0 0 0 0 0 0 0 0 0.07 0"/>
<feBlend mode="normal" in2="BackgroundImageFix" result="effect1_dropShadow"/>
<feColorMatrix in="SourceAlpha" type="matrix" values="0 0 0 0 0 0 0 0 0 0 0 0 0 0 0 0 0 0 127 0" result="hardAlpha"/>
<feMorphology radius="1" operator="erode" in="SourceAlpha" result="effect2_dropShadow"/>
<feOffset dy="4"/>
<feGaussianBlur stdDeviation="3"/>
<feColorMatrix type="matrix" values="0 0 0 0 0 0 0 0 0 0 0 0 0 0 0 0 0 0 0.12 0"/>
<feBlend mode="normal" in2="effect1_dropShadow" result="effect2_dropShadow"/>
<feBlend mode="normal" in="SourceGraphic" in2="effect2_dropShadow" result="shape"/>
</filter>
<linearGradient id="paint0_linear" x1="-27" y1="33" x2="37" y2="97" gradientUnits="userSpaceOnUse">
<stop stop-color="#FF0080"/>
<stop offset="1" stop-color="#7928CA"/>
</linearGradient>
</defs>
</svg>
